<svg xmlns="http://www.w3.org/2000/svg" height="89.33334" width="222.61333"><g fill="#7898c9"><path d="M206.75866 41.5708h-8.84V7.68067h8.20267v3.81666c1.04533-2.19213 3.62933-4.16346 7.10933-4.40826 5.644-.38747 9.38 2.96146 9.38 10.10573v24.376h-8.83733V15.95573c0-2.84586-.08667-5.35306-2.11334-5.8688-.868-.22293-2.13866-.0744-3.01733.68494-1.49333 1.30306-1.884 2.84013-1.884 5.20213v25.5968M54.94893 24.65827c0 6.19013.01147 11.17346-1.2396 13.77666-.6172 1.28174-1.54106 2.0396-3.2036 2.0396-1.6588 0-2.58066-.75786-3.19786-2.0396-1.25054-2.6032-1.24587-7.58653-1.24587-13.77666 0-6.19054-.00467-11.22854 1.24587-13.828.6172-1.28547 1.53906-2.0412 3.19786-2.0412 1.66254 0 2.5864.75573 3.2036 2.0412 1.25107 2.59946 1.2396 7.63746 1.2396 13.828zm3.30414-14.578c-2.2208-1.8204-4.6224-2.9912-7.74734-2.9912-3.12506 0-5.52346 1.1708-7.74373 2.9912-3.6808 3.01186-5.85627 8.40773-5.85627 14.578 0 6.16826 2.17547 11.55946 5.85627 14.5772 2.22027 1.8228 4.61867 2.988 7.74373 2.988 3.12494 0 5.52654-1.1652 7.74734-2.988 3.6808-3.01774 5.85573-8.40894 5.85573-14.5772 0-6.17027-2.17493-11.56614-5.85573-14.578M147.79733 54.24267v9.1808H146.048c-.92534-3.8844-2.59867-7.08227-6.73467-7.40214-2.51467-.20053-4.78 1.2052-5.008 3.43134-.248 2.25146.492 4.49733 5.17467 7.0036 5.776 3.09533 10.356 4.67866 10.356 11.41873 0 7.25-6.204 10.83594-11.84 10.83594h-10.2324V76.10677h1.75253c1.39587 6.62812 3.34267 10.64844 8.34253 10.78334 3.192.08853 5.47734-1.74063 5.47334-5.03542-.012-3.16928-2.18-5.29948-7.032-8.08962-5.31254-3.06294-8.7604-5.04054-8.776-9.7172-.04174-5.94627 4.41666-9.81347 11.38266-9.81347 2.19334 0 8.89067.00827 8.89067.00827M159.07733 41.5708v-24.376c0-7.14427-3.61733-10.4932-9.28133-10.10573-3.89334.27133-6.31867 2.70733-7.23067 4.62813-1.39467-3.36306-4.25733-4.9068-8.288-4.62813-3.47733.2448-5.85853 2.21613-6.9096 4.40826V7.68067h-8.0032V41.5708h8.63853V16.014c0-2.36093.40107-3.95933 1.8844-5.2004.98027-.8136 1.9256-.9048 2.8136-.68387 2.0256.50774 2.1096 3.0208 2.1096 5.8724V41.5708h8.736l-.01066-25.63067c0-2.36253.356-3.85106 1.88133-5.12653.98267-.8136 1.932-.9048 2.80933-.68387 2.02934.50774 2.11734 3.0208 2.11734 5.8724V41.5708h8.73333M78.95266.6912v40.8796h-8.9324V.6912h8.9324M100.22133 10.55213c1.8224 2.61294 1.97347 8.49267 1.97347 13.364 0 4.89214.2708 11.58027-1.86414 14.24534-.84946 1.06453-1.51133 1.62493-2.73746 1.59373-1.78174-.04693-2.9844-1.96973-3.3792-5.43493-.33894-2.98427-.43534-6.69107-.43534-10.63854 0-6.7708.69587-14.31666 3.9552-14.43746 1.264-.04267 1.91147.488 2.48747 1.30786zm10.598 31.01867V.6912h-8.83027v9.62333c-.8948-1.7984-2.62453-3.0624-5.27973-3.0624-6.52493 0-11.62027 6.63534-11.8692 16.58854-.1688 6.69053 2.17813 18.09106 11.08693 18.09106 3.636 0 5.6136-1.97026 6.47027-3.76813v3.4072h8.422M180.83333 21.32653L178 23.10413c-2.944 1.72187-3.468 3.93334-3.7 6.49747-.17734 1.95053-.21867 3.8588 0 6.7604.21733 2.8916 1.98933 3.44213 3.56266 2.82347 1.90934-.76 2.97067-4.01574 2.97067-7.59947V21.32653zm5.02933-12.65773c2.448 1.41813 3.81467 3.36187 3.81467 7.78693V41.5708H181.208l.01066-3.76147c-.992 2.52707-3.74666 4.33907-7.516 4.33907-3.33733 0-8.58666-1.4104-8.58666-9.23747 0-7.19946 4.96133-8.74373 10.15066-10.95466 5.03867-2.1516 5.56667-2.4656 5.56667-4.3084V12.05c0-2.28333-1.364-3.3104-3.91333-3.1516-.98934.062-2.74534.57347-2.844 1.79373-.14267 1.67187 1.55333 1.60947 1.78133 3.95574.32267 3.31826-2.516 4.64373-5.07733 4.5068-1.72667-.09214-3.94667-1.08227-4.15734-3.96147-.32133-4.35773 4.848-8.0968 12.18134-8.0968 3.236 0 5.36133.58174 7.05866 1.5724M53.55627 68.45733l-2.83854 1.78174c-2.93653 1.72186-3.46773 3.9312-3.70413 6.49374-.17147 1.95678-.21627 3.85782 0 6.76667.22027 2.88801 1.99107 3.4375 3.564 2.81823 1.9188-.7599 2.97867-4.01146 2.97867-7.59375V68.45733zm5.02186-12.65626c2.44734 1.41773 3.8136 3.36506 3.8136 7.79053v25.11257h-8.45626l.00666-3.75781c-.99 2.5276-3.752 4.33176-7.52493 4.33176-3.33693 0-8.58227-1.40208-8.58227-9.23072 0-7.20313 4.95414-8.74633 10.14574-10.95727 5.04333-2.15106 5.5756-2.46613 5.5756-4.3084v-5.6c0-2.2776-1.37134-3.30573-3.9136-3.14946-.99107.06146-2.74894.574-2.85147 1.79426-.14387 1.66667 1.5452 1.60574 1.78227 3.95787.32493 3.31613-2.50894 4.63747-5.07507 4.5068-1.72653-.08907-3.94733-1.08493-4.16293-3.96053-.312-4.36134 4.85466-8.09627 12.188-8.09627 3.23386 0 5.35573.576 7.05466 1.56667M120.80733 64.32293c0-7.13546-3.7136-10.4844-9.36827-10.0964-2.912.2032-5.20106 1.62614-6.47973 3.3656v-9.764h-8.83907v23.06254c0 8.48381-6.0896 16.49682-12.12026 16.42444-4.58547-.05834-5.57867-3.40366-6.10267-6.88438-.76133-5.0974-.82227-10.73593-.15093-17.19273.42493-3.99533 1.5968-7.13067 4.54053-7.21667C84.71613 55.9464 84.836 57.6344 84 58.5156c-1.26827 1.3208-2.66974 2.4672-2.01507 5.22653C82.73173 66.90987 87.838 67.312 90 64.96827c1.826-1.99534 1.6584-5.24334.312-7.1792-1.68227-2.40414-4.13547-3.58694-7.92974-3.5464-4.86506.04066-14.0792 4.286-14.0792 17.9032 0 14.65101 9.35054 17.18746 14.83294 17.18746 6.1812 0 11.60306-5.36041 12.99733-9.78854v9.16615h8.826V63.24067c0-2.35787.398-3.89694 1.89907-5.19907.88066-.75773 2.14106-.90413 3.0192-.6828 2.0208.51147 2.09586 3.02187 2.09586 5.86933v25.4828h8.83387v-24.388M30.8172-.00306V14.2208h-1.71667c-1.4188-6.8396-4.7568-12.31506-9.42346-12.52186-3.1692-.13694-5.06147 1.5224-6.5203 4.17453-1.57656 2.85627-2.3677 9.2344-2.3677 16.79053 0 6.9704.30156 12.2204 1.19478 15.95107.44584 1.8532 1.60788 4.6032 4.99322 4.68493 1.9396.04533 3.02506-.65213 3.93693-1.5812 1.3704-1.39067 1.59333-4.4552 1.59333-6.61147v-6.59746c0-2.51347-.94226-4.10054-2.14853-4.84107-1.01347-.6172-2.53533-.6724-3.43373-.72973v-1.75934H31.3276v35.9176h-1.72707c-.64786-2.8364-1.27813-4.80146-2.5084-7.0864-1.2676-2.34373-3.53586-4.67453-7.35613-4.8864-4.12347-.23493-7.34016 2.40414-7.34016 6.1796 0 5.00947 2.9875 6.17507 8.7651 9.324 5.31093 2.8984 12.36613 5.41454 12.36613 14.34787 0 8.41983-7.54214 13.74848-15.93014 13.74848H4.01771V71.3588h1.80625C8.10208 84.49636 13.8208 86.79688 17.6208 86.79688c4.84587 0 7.21307-3.08959 7.06613-7.49063-.17853-5.41252-4.00626-7.37918-9.4676-10.28798C7.52031 64.9224 3.86407 62.75267 4.02812 55.7536c.13699-5.86867 4.94792-9.71293 10.55001-11.1916C3.17188 43.20413-.09427 33.1312.00208 22.34427.10156 11.6416 6.52918-.0068 19.0052-.0068c5.70213 0 11.812.00374 11.812.00374"/></g></svg>
